<mxfile host="65bd71144e">
    <diagram id="5OW3BGeqKOvlvghJNmgx" name="Final Architecture">
        <mxGraphModel dx="790" dy="500" grid="1" gridSize="10" guides="1" tooltips="1" connect="1" arrows="1" fold="1" page="1" pageScale="1" pageWidth="1900" pageHeight="1400" math="0" shadow="0">
            <root>
                <mxCell id="0"/>
                <mxCell id="1" parent="0"/>
                <mxCell id="8" value="Data Sources" style="rounded=1;whiteSpace=wrap;html=1;fillColor=#DAE8FC;strokeColor=#6C8EBF;fontSize=12;" vertex="1" parent="1">
                    <mxGeometry x="20" y="20" width="140" height="80" as="geometry"/>
                </mxCell>
                <mxCell id="9" value="Local Batch Files" style="rounded=1;whiteSpace=wrap;html=1;fillColor=#FFFFFF;strokeColor=#000000;fontSize=10;" vertex="1" parent="8">
                    <mxGeometry x="10" y="40" width="120" height="30" as="geometry"/>
                </mxCell>
                <mxCell id="10" value="Transactional DB (CDC)" style="rounded=1;whiteSpace=wrap;html=1;fillColor=#FFFFFF;strokeColor=#000000;fontSize=10;" vertex="1" parent="8">
                    <mxGeometry x="10" y="75" width="120" height="30" as="geometry"/>
                </mxCell>
                <mxCell id="11" value="PySpark Batch Jobs" style="rounded=1;whiteSpace=wrap;html=1;fillColor=#FFF2CC;strokeColor=#D6B656;fontSize=12;" vertex="1" parent="1">
                    <mxGeometry x="200" y="20" width="160" height="60" as="geometry"/>
                </mxCell>
                <mxCell id="12" value="Debezium" style="rounded=1;whiteSpace=wrap;html=1;fillColor=#FFF2CC;strokeColor=#D6B656;fontSize=12;" vertex="1" parent="1">
                    <mxGeometry x="200" y="100" width="160" height="60" as="geometry"/>
                </mxCell>
                <mxCell id="13" value="Airflow (Orchestration)" style="rounded=1;whiteSpace=wrap;html=1;fillColor=#FFE6CC;strokeColor=#D79B00;fontSize=12;" vertex="1" parent="1">
                    <mxGeometry x="290" y="320" width="160" height="60" as="geometry"/>
                </mxCell>
                <mxCell id="14" value="Kafka" style="rounded=1;whiteSpace=wrap;html=1;fillColor=#E1D5E7;strokeColor=#9673A6;fontSize=12;" vertex="1" parent="1">
                    <mxGeometry x="400" y="100" width="140" height="60" as="geometry"/>
                </mxCell>
                <mxCell id="15" value="Streaming Engine (Flink/Spark Streaming)" style="rounded=1;whiteSpace=wrap;html=1;fillColor=#E1D5E7;strokeColor=#9673A6;fontSize=12;" vertex="1" parent="1">
                    <mxGeometry x="600" y="100" width="220" height="60" as="geometry"/>
                </mxCell>
                <mxCell id="16" value="Dual-Sink Output" style="rounded=1;whiteSpace=wrap;html=1;fillColor=#F8CECC;strokeColor=#B85450;fontSize=12;" vertex="1" parent="1">
                    <mxGeometry x="850" y="100" width="160" height="80" as="geometry"/>
                </mxCell>
                <mxCell id="17" value="Raw Data to Data Lake (MinIO/GCS)" style="rounded=1;whiteSpace=wrap;html=1;fillColor=#FFFFFF;strokeColor=#000000;fontSize=10;" vertex="1" parent="16">
                    <mxGeometry x="10" y="20" width="140" height="30" as="geometry"/>
                </mxCell>
                <mxCell id="18" value="Processed Data to BigQuery Staging" style="rounded=1;whiteSpace=wrap;html=1;fillColor=#FFFFFF;strokeColor=#000000;fontSize=10;" vertex="1" parent="16">
                    <mxGeometry x="10" y="50" width="140" height="30" as="geometry"/>
                </mxCell>
                <mxCell id="19" value="Data Warehouse (BigQuery)" style="rounded=1;whiteSpace=wrap;html=1;fillColor=#D5E8D4;strokeColor=#82B366;fontSize=12;" vertex="1" parent="1">
                    <mxGeometry x="1050" y="100" width="160" height="60" as="geometry"/>
                </mxCell>
                <mxCell id="20" value="dbt (SQL Transformations)" style="rounded=1;whiteSpace=wrap;html=1;fillColor=#D5E8D4;strokeColor=#82B366;fontSize=12;" vertex="1" parent="1">
                    <mxGeometry x="1050" y="200" width="160" height="60" as="geometry"/>
                </mxCell>
                <mxCell id="21" value="Feature Store (Feast)" style="rounded=1;whiteSpace=wrap;html=1;fillColor=#D5E8D4;strokeColor=#82B366;fontSize=12;" vertex="1" parent="1">
                    <mxGeometry x="1050" y="300" width="160" height="60" as="geometry"/>
                </mxCell>
                <mxCell id="22" value="ML Models / Downstream Apps" style="rounded=1;whiteSpace=wrap;html=1;fillColor=#DDEBF7;strokeColor=#6C8EBF;fontSize=12;" vertex="1" parent="1">
                    <mxGeometry x="1050" y="400" width="160" height="60" as="geometry"/>
                </mxCell>
                <mxCell id="23" style="edgeStyle=orthogonalEdgeStyle;rounded=0;html=1;strokeColor=#000000;" edge="1" parent="1" source="8" target="11">
                    <mxGeometry relative="1" as="geometry"/>
                </mxCell>
                <mxCell id="24" style="edgeStyle=orthogonalEdgeStyle;rounded=0;html=1;strokeColor=#000000;" edge="1" parent="1" source="8" target="12">
                    <mxGeometry relative="1" as="geometry"/>
                </mxCell>
                <mxCell id="25" style="edgeStyle=orthogonalEdgeStyle;rounded=0;html=1;strokeColor=#000000;" edge="1" parent="1" source="12" target="14">
                    <mxGeometry relative="1" as="geometry"/>
                </mxCell>
                <mxCell id="26" style="edgeStyle=orthogonalEdgeStyle;rounded=0;html=1;strokeColor=#000000;" edge="1" parent="1" source="14" target="15">
                    <mxGeometry relative="1" as="geometry"/>
                </mxCell>
                <mxCell id="27" style="edgeStyle=orthogonalEdgeStyle;rounded=0;html=1;strokeColor=#000000;" edge="1" parent="1" source="15" target="16">
                    <mxGeometry relative="1" as="geometry"/>
                </mxCell>
                <mxCell id="28" style="edgeStyle=orthogonalEdgeStyle;rounded=0;html=1;strokeColor=#000000;" edge="1" parent="1" source="16" target="19">
                    <mxGeometry relative="1" as="geometry"/>
                </mxCell>
                <mxCell id="29" style="edgeStyle=orthogonalEdgeStyle;rounded=0;html=1;strokeColor=#000000;" edge="1" parent="1" source="19" target="20">
                    <mxGeometry relative="1" as="geometry"/>
                </mxCell>
                <mxCell id="30" style="edgeStyle=orthogonalEdgeStyle;rounded=0;html=1;strokeColor=#000000;" edge="1" parent="1" source="20" target="21">
                    <mxGeometry relative="1" as="geometry"/>
                </mxCell>
                <mxCell id="31" style="edgeStyle=orthogonalEdgeStyle;rounded=0;html=1;strokeColor=#000000;" edge="1" parent="1" source="21" target="22">
                    <mxGeometry relative="1" as="geometry"/>
                </mxCell>
                <mxCell id="32" style="edgeStyle=orthogonalEdgeStyle;rounded=0;html=1;strokeColor=#000000;" edge="1" parent="1" source="11" target="19">
                    <mxGeometry relative="1" as="geometry"/>
                </mxCell>
                <mxCell id="34" style="edgeStyle=orthogonalEdgeStyle;rounded=0;html=1;strokeColor=#000000;" edge="1" parent="1" source="13" target="12">
                    <mxGeometry relative="1" as="geometry"/>
                </mxCell>
            </root>
        </mxGraphModel>
    </diagram>
</mxfile>